<svg width="48" height="48" viewBox="0 0 48 48" fill="none" xmlns="http://www.w3.org/2000/svg">
<path d="M39.4286 6H8.56339C7.14911 6 6 7.16518 6 8.59554V39.4045C6 40.8348 7.14911 42 8.56339 42H39.4286C40.8429 42 42 40.8348 42 39.4045V8.59554C42 7.16518 40.8429 6 39.4286 6ZM16.8804 36.8571H11.5446V19.6768H16.8884V36.8571H16.8804ZM14.2125 17.3304C12.5009 17.3304 11.1188 15.9402 11.1188 14.2366C11.1188 12.533 12.5009 11.1429 14.2125 11.1429C15.9161 11.1429 17.3062 12.533 17.3062 14.2366C17.3062 15.9482 15.9241 17.3304 14.2125 17.3304ZM36.8812 36.8571H31.5455V28.5C31.5455 26.5071 31.5054 23.9438 28.7732 23.9438C25.9929 23.9438 25.567 26.1134 25.567 28.3554V36.8571H20.2313V19.6768H25.35V22.0232H25.4223C26.1375 20.6732 27.8813 19.2509 30.4768 19.2509C35.8768 19.2509 36.8812 22.8107 36.8812 27.4393V36.8571Z" fill="#2867B2"/>
</svg>
