<svg width="94" height="78" viewBox="0 0 94 78" fill="none" xmlns="http://www.w3.org/2000/svg">
<path d="M27.5567 29.5256C27.5976 23.4235 27.4706 17.3156 27.6145 11.2167C28.0923 7.71223 30.4754 4.98479 33.9249 4.15356C34.1009 4.14201 34.2751 4.1103 34.4439 4.05906C35.2464 3.95501 36.0567 3.92457 36.8648 3.96811C37.1904 3.96075 37.5158 3.99143 37.8343 4.05953C38.2745 4.1149 38.7087 4.21076 39.1313 4.34588C40.545 4.78952 41.8277 5.57449 42.8662 6.63145C43.9046 7.68842 44.6667 8.98484 45.0853 10.4062C45.5405 11.8606 45.4131 13.3966 45.4254 14.9033C45.4272 22.7982 45.4278 30.6932 45.4271 38.5881C45.4271 38.8218 45.3815 38.8167 45.6593 38.8167C50.3449 38.8166 55.0305 38.8163 59.7161 38.8159C60.1936 38.7909 60.6498 39.2097 60.5776 39.6955C60.3482 42.562 60.6552 45.5112 61.7787 48.1793C62.3436 49.5515 63.1262 50.8236 64.0964 51.9463C64.7347 52.6599 65.4414 53.3091 66.2064 53.8847C66.7428 54.3562 66.3633 55.3716 65.5713 55.2554C55.4358 55.2377 45.2932 55.2907 35.1608 55.2371C34.5308 55.1736 33.9097 55.0404 33.309 54.8399C30.3737 53.8964 28.0685 51.1799 27.6668 48.122C27.4664 46.3873 27.584 44.62 27.5588 42.8733C27.5485 38.4242 27.5611 33.9748 27.5567 29.5256ZM43.4242 49.9523C43.5067 49.9565 43.6952 49.965 43.6024 49.8369C43.1237 49.2451 42.6954 48.6142 42.3221 47.9507C41.1906 45.9697 40.5669 43.7407 40.2596 41.5031C40.2119 40.87 40.1469 40.2377 40.1217 39.6038C40.1196 30.8389 40.1189 22.074 40.1197 13.3092C40.276 11.6622 39.2792 10.0154 37.6886 9.48523C37.128 9.26756 36.5133 9.23074 35.9306 9.37994C35.8267 9.43354 35.7152 9.4712 35.6001 9.49165C35.4573 9.53556 35.3177 9.58938 35.1823 9.65271C34.5067 9.97703 33.9348 10.4832 33.5308 11.1144C33.1267 11.7456 32.9065 12.4769 32.8949 13.2262C33.0246 24.7274 32.6418 36.2853 33.031 47.7597C33.1952 48.3121 33.513 48.8065 33.9473 49.1853C34.3817 49.5642 34.9146 49.8119 35.4843 49.8996M46.3892 44.2108C48.2282 48.4132 51.4903 49.8858 55.8957 50.0741C56.4642 50.046 57.0329 50.0235 57.5983 49.9577C57.7065 49.951 57.6782 49.8562 57.6146 49.8076C56.9843 48.9397 56.5007 47.9743 56.1829 46.9498C56.0789 46.7184 56.0681 46.4562 55.9871 46.2191C55.9648 46.0442 55.9278 45.8716 55.8766 45.7029C55.819 45.229 55.7852 44.7525 55.7755 44.2752C55.7897 44.1442 55.6426 44.1853 55.5596 44.1784C52.5595 44.1702 49.5593 44.1685 46.5592 44.1733C46.4998 44.1632 46.4388 44.1767 46.3892 44.2108Z" fill="#00ADEF"/>
<path d="M35.1533 28.2531C35.16 33.5524 35.1401 38.8524 35.1606 44.1514C35.2208 44.9048 35.977 45.4435 36.7042 45.4217C36.7619 45.4322 36.8147 45.4608 36.8551 45.5034C36.8955 45.5459 36.9213 45.6002 36.9288 45.6583C36.9277 45.722 36.9024 45.7828 36.8579 45.8283C36.8134 45.8738 36.7531 45.9005 36.6895 45.903C36.6266 45.9068 36.5604 45.8902 36.5024 45.9307C36.4984 45.9336 36.4938 45.9356 36.4889 45.9366C36.484 45.9376 36.479 45.9375 36.4742 45.9364C36.3588 45.8789 36.2283 45.9193 36.1126 45.8839C35.8282 45.8207 35.5624 45.6921 35.3363 45.5083C35.1102 45.3245 34.9301 45.0905 34.8103 44.8248C34.6583 44.4687 34.5931 44.0814 34.6202 43.6951C34.6187 33.2789 34.6183 22.8628 34.619 12.4466C34.619 12.3873 34.6168 12.3278 34.6207 12.2687C34.6254 12.1995 34.6543 12.1341 34.7024 12.0841C34.7505 12.0341 34.8147 12.0026 34.8837 11.9953C34.9204 11.9969 34.9562 12.007 34.9883 12.0247C35.0204 12.0425 35.0481 12.0674 35.069 12.0975C35.1751 12.202 35.1512 12.336 35.1533 12.4732C35.1533 17.7332 35.1533 22.9932 35.1533 28.2531Z" fill="#00ADEF"/>
<path d="M37.3614 29.7667C37.3618 23.9282 37.3619 18.0896 37.3618 12.251C37.3609 12.2194 37.3663 12.188 37.3778 12.1585C37.3892 12.129 37.4064 12.1021 37.4284 12.0794C37.4503 12.0566 37.4766 12.0385 37.5057 12.026C37.5347 12.0135 37.566 12.007 37.5976 12.0067C37.6616 12.0083 37.7224 12.0346 37.7674 12.0801C37.8124 12.1256 37.838 12.1868 37.8388 12.2508C37.8424 23.8289 37.8433 35.4072 37.8415 46.9856C37.8593 47.2346 37.9718 47.4674 38.1559 47.6361C38.34 47.8048 38.5818 47.8965 38.8314 47.8925C39.6222 47.8875 40.4131 47.8903 41.2039 47.8904C41.2477 47.8825 41.2927 47.8853 41.3351 47.8985C41.3776 47.9117 41.4163 47.9349 41.4478 47.9662C41.4786 48.0081 41.4979 48.0574 41.5039 48.109C41.5099 48.1607 41.5023 48.213 41.4819 48.2609C41.4508 48.3802 41.3029 48.3783 41.195 48.3748C40.3449 48.376 39.4948 48.3822 38.6447 48.3762C38.4175 48.38 38.1936 48.3222 37.9966 48.2089C37.7996 48.0957 37.637 47.9312 37.5261 47.7329C37.4109 47.544 37.3528 47.3258 37.3588 47.1046C37.3671 41.3253 37.3583 35.5459 37.3614 29.7667Z" fill="#00ADEF"/>
<path d="M25.3398 69.0511V60.9567H27.0239V67.5843H30.4464V69.0511H25.3398ZM34.1065 69.1815C33.5198 69.1815 32.9838 69.0475 32.4985 68.7795C32.0204 68.5115 31.6365 68.1457 31.3468 67.6821C31.0643 67.2113 30.9231 66.6789 30.9231 66.085C30.9231 65.4838 31.0643 64.9514 31.3468 64.4878C31.6365 64.0242 32.0204 63.6584 32.4985 63.3904C32.9838 63.1224 33.5198 62.9884 34.1065 62.9884C34.6932 62.9884 35.2256 63.1224 35.7037 63.3904C36.1817 63.6584 36.562 64.0242 36.8445 64.4878C37.1342 64.9514 37.2791 65.4838 37.2791 66.085C37.2791 66.6789 37.1342 67.2113 36.8445 67.6821C36.562 68.1457 36.1817 68.5115 35.7037 68.7795C35.2256 69.0475 34.6932 69.1815 34.1065 69.1815ZM34.1065 67.7147C34.4035 67.7147 34.6606 67.6459 34.8779 67.5083C35.1025 67.3707 35.2763 67.1787 35.3995 66.9324C35.5298 66.6862 35.595 66.4037 35.595 66.085C35.595 65.7663 35.5298 65.4874 35.3995 65.2484C35.2763 65.0021 35.1025 64.8101 34.8779 64.6725C34.6606 64.5276 34.4035 64.4552 34.1065 64.4552C33.8095 64.4552 33.5488 64.5276 33.3242 64.6725C33.0997 64.8101 32.9222 65.0021 32.7918 65.2484C32.6687 65.4874 32.6071 65.7663 32.6071 66.085C32.6071 66.4037 32.6687 66.6862 32.7918 66.9324C32.9222 67.1787 33.0997 67.3707 33.3242 67.5083C33.5488 67.6459 33.8095 67.7147 34.1065 67.7147ZM40.9906 69.1163C40.2735 69.1163 39.7158 68.9244 39.3174 68.5405C38.9263 68.1493 38.7307 67.6061 38.7307 66.9107V64.5313H37.7311V63.1188H37.7854C38.0897 63.1188 38.3214 63.0428 38.4808 62.8906C38.6474 62.7385 38.7307 62.5104 38.7307 62.2061V61.7715H40.3604V63.1188H41.7512V64.5313H40.3604V66.8021C40.3604 67.0049 40.3967 67.1751 40.4691 67.3127C40.5415 67.4431 40.6538 67.5409 40.8059 67.6061C40.958 67.6713 41.1463 67.7039 41.3709 67.7039C41.4216 67.7039 41.4795 67.7002 41.5447 67.693C41.6099 67.6857 41.6787 67.6785 41.7512 67.6713V69.0511C41.6425 69.0656 41.5194 69.0801 41.3818 69.0946C41.2441 69.1091 41.1138 69.1163 40.9906 69.1163ZM42.7062 69.0511V60.8263H44.3359V64.2922L44.1404 64.0315C44.278 63.6765 44.4989 63.4158 44.8031 63.2492C45.1146 63.0753 45.4768 62.9884 45.8896 62.9884C46.3387 62.9884 46.7299 63.0826 47.0631 63.2709C47.4035 63.4592 47.6679 63.7236 47.8562 64.0641C48.0445 64.3973 48.1387 64.7884 48.1387 65.2375V69.0511H46.509V65.5852C46.509 65.3534 46.4619 65.1542 46.3677 64.9876C46.2808 64.821 46.154 64.6906 45.9874 64.5965C45.8281 64.5023 45.6397 64.4552 45.4224 64.4552C45.2124 64.4552 45.0241 64.5023 44.8575 64.5965C44.6909 64.6906 44.5605 64.821 44.4663 64.9876C44.3794 65.1542 44.3359 65.3534 44.3359 65.5852V69.0511H42.7062ZM52.0679 69.1815C51.4377 69.1815 50.8908 69.0439 50.4272 68.7686C49.9637 68.4861 49.6051 68.1095 49.3516 67.6387C49.0981 67.1678 48.9713 66.6463 48.9713 66.0741C48.9713 65.4801 49.1017 64.9514 49.3625 64.4878C49.6305 64.0242 49.989 63.6584 50.4381 63.3904C50.8872 63.1224 51.3942 62.9884 51.9592 62.9884C52.43 62.9884 52.8465 63.0645 53.2087 63.2166C53.5709 63.3615 53.8751 63.5679 54.1214 63.8359C54.3749 64.1039 54.5668 64.4154 54.6972 64.7703C54.8276 65.118 54.8928 65.4983 54.8928 65.9111C54.8928 66.027 54.8855 66.1429 54.871 66.2588C54.8638 66.3675 54.8457 66.4616 54.8167 66.5413H50.3729V65.3461H53.8932L53.1218 65.9111C53.1942 65.5997 53.1906 65.3244 53.1109 65.0854C53.0312 64.8391 52.89 64.6472 52.6872 64.5095C52.4916 64.3647 52.2489 64.2922 51.9592 64.2922C51.6767 64.2922 51.4341 64.361 51.2313 64.4987C51.0284 64.6363 50.8763 64.8391 50.7749 65.1071C50.6735 65.3751 50.6337 65.7011 50.6554 66.085C50.6264 66.4182 50.6663 66.7115 50.7749 66.965C50.8836 67.2185 51.0502 67.4177 51.2747 67.5626C51.4993 67.7002 51.7709 67.769 52.0896 67.769C52.3793 67.769 52.6256 67.7111 52.8284 67.5952C53.0385 67.4793 53.2014 67.32 53.3173 67.1171L54.6211 67.7364C54.5052 68.0262 54.3205 68.2797 54.067 68.497C53.8208 68.7143 53.5274 68.8845 53.187 69.0077C52.8465 69.1236 52.4735 69.1815 52.0679 69.1815ZM58.7643 71.4414C58.308 71.4414 57.8842 71.3654 57.4931 71.2133C57.1019 71.0611 56.7651 70.8475 56.4826 70.5722C56.2074 70.3042 56.0082 69.9855 55.8851 69.6161L57.3953 69.0837C57.475 69.359 57.6379 69.5763 57.8842 69.7356C58.1305 69.895 58.4238 69.9746 58.7643 69.9746C59.0323 69.9746 59.2641 69.9239 59.4596 69.8225C59.6552 69.7284 59.8037 69.5871 59.9051 69.3988C60.0138 69.2105 60.0681 68.9895 60.0681 68.736V67.3779L60.3832 67.769C60.1804 68.1022 59.9196 68.3521 59.6009 68.5187C59.2822 68.6781 58.9092 68.7578 58.4818 68.7578C57.9313 68.7578 57.4388 68.6346 57.0041 68.3883C56.5695 68.1348 56.2291 67.7908 55.9828 67.3562C55.7366 66.9143 55.6134 66.4145 55.6134 65.8568C55.6134 65.2991 55.7366 64.8065 55.9828 64.3792C56.2291 63.9446 56.5659 63.6041 56.9933 63.3578C57.4206 63.1116 57.9059 62.9884 58.4492 62.9884C58.8766 62.9884 59.2496 63.0753 59.5683 63.2492C59.887 63.4158 60.1586 63.6729 60.3832 64.0206L60.1767 64.4117V63.1188H61.6978V68.736C61.6978 69.2576 61.5711 69.7211 61.3176 70.1268C61.0641 70.5396 60.7164 70.862 60.2745 71.0937C59.8399 71.3255 59.3365 71.4414 58.7643 71.4414ZM58.71 67.2801C58.9852 67.2801 59.2242 67.2222 59.4271 67.1063C59.6299 66.9904 59.7856 66.8274 59.8942 66.6173C60.0101 66.4073 60.0681 66.161 60.0681 65.8785C60.0681 65.596 60.0101 65.3498 59.8942 65.1397C59.7784 64.9224 59.619 64.7558 59.4162 64.6399C59.2134 64.5168 58.978 64.4552 58.71 64.4552C58.4347 64.4552 58.1884 64.5168 57.9711 64.6399C57.7611 64.7558 57.5945 64.9224 57.4713 65.1397C57.3555 65.3498 57.2975 65.596 57.2975 65.8785C57.2975 66.1538 57.3555 66.3964 57.4713 66.6065C57.5945 66.8165 57.7611 66.9831 57.9711 67.1063C58.1884 67.2222 58.4347 67.2801 58.71 67.2801ZM65.8422 69.1815C65.2555 69.1815 64.7195 69.0475 64.2342 68.7795C63.7561 68.5115 63.3722 68.1457 63.0825 67.6821C62.8 67.2113 62.6587 66.6789 62.6587 66.085C62.6587 65.4838 62.8 64.9514 63.0825 64.4878C63.3722 64.0242 63.7561 63.6584 64.2342 63.3904C64.7195 63.1224 65.2555 62.9884 65.8422 62.9884C66.4289 62.9884 66.9613 63.1224 67.4393 63.3904C67.9174 63.6584 68.2977 64.0242 68.5802 64.4878C68.8699 64.9514 69.0148 65.4838 69.0148 66.085C69.0148 66.6789 68.8699 67.2113 68.5802 67.6821C68.2977 68.1457 67.9174 68.5115 67.4393 68.7795C66.9613 69.0475 66.4289 69.1815 65.8422 69.1815ZM65.8422 67.7147C66.1392 67.7147 66.3963 67.6459 66.6136 67.5083C66.8381 67.3707 67.012 67.1787 67.1351 66.9324C67.2655 66.6862 67.3307 66.4037 67.3307 66.085C67.3307 65.7663 67.2655 65.4874 67.1351 65.2484C67.012 65.0021 66.8381 64.8101 66.6136 64.6725C66.3963 64.5276 66.1392 64.4552 65.8422 64.4552C65.5452 64.4552 65.2844 64.5276 65.0599 64.6725C64.8353 64.8101 64.6579 65.0021 64.5275 65.2484C64.4044 65.4874 64.3428 65.7663 64.3428 66.085C64.3428 66.4037 64.4044 66.6862 64.5275 66.9324C64.6579 67.1787 64.8353 67.3707 65.0599 67.5083C65.2844 67.6459 65.5452 67.7147 65.8422 67.7147Z" fill="#00ADEF"/>
</svg>
